<svg xmlns="http://www.w3.org/2000/svg" width="13" height="13" fill="none" viewBox="0 0 13 13">
  <path fill="#B48EAD" d="M6.42 8.392a.102.102 0 00.16 0l1.422-1.8a.101.101 0 00-.08-.163h-.94V2.133a.102.102 0 00-.102-.102h-.762a.102.102 0 00-.102.102v4.295h-.938a.101.101 0 00-.08.163l1.422 1.8zm4.726-.445h-.761a.102.102 0 00-.102.102v1.955H2.717V8.049a.102.102 0 00-.102-.102h-.761a.102.102 0 00-.102.102v2.514c0 .224.181.406.406.406h8.684a.406.406 0 00.406-.406V8.049a.102.102 0 00-.101-.102z"/>
</svg>
