<svg xmlns="http://www.w3.org/2000/svg" width="17" height="18" fill="none" viewBox="0 0 17 18">
  <path fill="#A3BE8C" d="M12.396 3.333a2.482 2.482 0 00-2.48 2.48c0 1.1.727 2.025 1.722 2.348a2.717 2.717 0 01-.871 1.645c-1.379 1.256-3.915 1.37-5.1 1.35V6.76a2.476 2.476 0 001.77-2.364 2.482 2.482 0 00-2.479-2.48 2.482 2.482 0 00-2.479 2.48c0 1.119.751 2.056 1.771 2.364v4.48a2.476 2.476 0 00-1.77 2.364 2.482 2.482 0 002.478 2.48 2.482 2.482 0 002.48-2.48c0-.39-.1-.754-.26-1.083 1.459-.132 3.298-.536 4.54-1.664.776-.707 1.225-1.604 1.348-2.67a2.474 2.474 0 001.809-2.374 2.482 2.482 0 00-2.48-2.48zm-8.5 1.063c0-.586.476-1.063 1.062-1.063a1.064 1.064 0 010 2.125 1.064 1.064 0 01-1.062-1.062zm1.062 10.27a1.064 1.064 0 01-.755-1.808c.196-.198.463-.312.743-.315l.092.007a1.059 1.059 0 11-.08 2.117zm7.438-7.791a1.064 1.064 0 01-1.063-1.062 1.064 1.064 0 012.125 0c0 .585-.476 1.062-1.062 1.062z"/>
</svg>
