<svg xmlns="http://www.w3.org/2000/svg" width="24" height="24" fill="none" viewBox="0 0 24 24">
  <path fill="#EBCB8B" d="M12.642 5.084c-.364.189-.79.42-1.242.42-.452 0-.81-.209-1.066-.413-.13-.101-.234-.202-.313-.276-.137-.108-.12-.259-.064-.254.094.012.108.136.168.191.08.075.18.172.302.269.243.192.567.38.973.38s.878-.238 1.167-.4c.163-.092.371-.256.541-.381.13-.095.125-.21.232-.198.107.013.028.127-.122.258-.178.154-.37.29-.576.404z"/>
  <path fill="#ECEFF4" d="M18.49 16.623c-.12-.129-.177-.366-.238-.618-.06-.252-.13-.524-.348-.7l-.002-.001a.907.907 0 00-.27-.154c.305-.853.187-1.703-.122-2.47-.377-.944-1.037-1.765-1.54-2.327-.564-.671-1.115-1.308-1.104-2.25.018-1.436.167-4.1-2.51-4.103-.114 0-.227.004-.34.014-2.993.226-2.198 3.21-2.243 4.21-.055.73-.212 1.307-.744 2.021-.625.702-1.506 1.839-1.923 3.022-.197.558-.29 1.127-.205 1.666a1.542 1.542 0 00-.077.071c-.183.185-.32.41-.471.56-.14.134-.342.184-.563.26-.222.074-.465.184-.612.452l-.001.001a.764.764 0 00-.092.388c0 .123.02.25.04.37.04.25.082.487.027.648-.175.452-.197.765-.074.991.124.228.376.328.664.384.574.113 1.351.085 1.964.392l.052-.094-.052.095c.656.323 1.322.438 1.852.324.385-.083.697-.3.858-.632.415-.001.87-.167 1.6-.205.494-.037 1.113.166 1.823.128a.861.861 0 00.084.212c.275.52.787.758 1.333.718.546-.04 1.128-.345 1.598-.873l-.087-.068.087.067c.447-.512 1.19-.725 1.683-1.005.247-.14.446-.317.462-.571.015-.255-.143-.541-.508-.923zm-6.61-9.38c-.002-.188.031-.35.107-.513a.913.913 0 01.304-.376.7.7 0 01.42-.141h.007c.152 0 .282.042.415.134.135.093.233.209.31.37.08.16.12.334.12.51a1.146 1.146 0 01-.26.752l-.063-.027a6.189 6.189 0 00-.201-.077c-.06-.021-.105-.035-.154-.05.035-.04.104-.087.128-.146a.72.72 0 00.061-.278l.002-.013a.723.723 0 00-.042-.27.504.504 0 00-.132-.21.273.273 0 00-.19-.081h-.008a.284.284 0 00-.184.068.496.496 0 00-.148.2.72.72 0 00-.061.28l-.001.012a.749.749 0 00.012.16 2.178 2.178 0 00-.43-.137 1.272 1.272 0 01-.012-.152v-.016zm-1.819.041c-.01-.162.008-.301.055-.445a.753.753 0 01.202-.335.448.448 0 01.296-.135h.025c.1 0 .191.032.284.102.107.083.19.19.241.312.065.137.099.274.108.436v.002c.005.065.005.13-.002.194l-.057.017a1.207 1.207 0 00-.279.127.64.64 0 00.003-.172v-.01a.726.726 0 00-.058-.219.418.418 0 00-.117-.162.197.197 0 00-.13-.052l-.014.001a.188.188 0 00-.133.074.42.42 0 00-.086.179.692.692 0 00-.016.234v.01a.7.7 0 00.058.22c.029.07.077.133.14.18-.05.036-.083.062-.123.09l-.094.065a.798.798 0 01-.194-.274 1.17 1.17 0 01-.109-.437v-.002zm.132.984l.34-.239c.074-.05.104-.069.126-.09h.001c.12-.105.307-.3.593-.392.098-.032.208-.052.331-.053.234 0 .516.071.857.279.21.128.373.14.749.29.181.07.287.162.34.258.051.096.053.2.01.31-.088.219-.365.45-.753.565h-.001c-.19.057-.355.186-.55.291a1.286 1.286 0 01-.714.174.984.984 0 01-.317-.066 1.03 1.03 0 01-.229-.134c-.137-.105-.257-.236-.433-.333h-.002c-.282-.153-.437-.327-.486-.48-.048-.15-.002-.28.138-.38zm.11 10.43c-.039.5-.337.77-.795.87-.457.098-1.078 0-1.696-.305H7.81c-.686-.343-1.5-.309-2.023-.412-.261-.052-.432-.13-.51-.273-.079-.145-.08-.396.086-.824v-.002l.001-.001c.083-.24.022-.502-.017-.749-.04-.245-.06-.47.028-.625l.001-.002c.115-.207.282-.282.489-.352.208-.07.453-.125.648-.309h.001l.001-.002c.18-.178.315-.402.473-.562.133-.134.266-.223.467-.224h.008c.035 0 .072.002.112.009.266.037.499.214.724.5l.646 1.113h.001c.171.34.536.713.844 1.094.307.38.546.762.515 1.055h-.002zm-.053-.81a5.38 5.38 0 00-.282-.375c-.064-.08-.129-.158-.194-.235a.82.82 0 00.325-.058.413.413 0 00.226-.22c.077-.193 0-.466-.244-.779-.246-.312-.66-.665-1.268-1.016-.447-.263-.697-.585-.814-.934-.117-.35-.1-.727-.01-1.1.172-.716.618-1.412.901-1.849.077-.053.027.099-.287.65-.282.504-.81 1.667-.088 2.575.026-.662.18-1.313.457-1.921.4-.855 1.235-2.34 1.301-3.522.035.024.153.099.205.127.154.085.268.21.417.323.15.114.336.211.619.227l.079.002c.29 0 .518-.09.707-.192.205-.11.37-.233.524-.28.33-.098.59-.27.738-.47.257.95.85 2.322 1.23 2.991.204.355.607 1.11.781 2.02a1.4 1.4 0 01.363.043c.455-1.116-.386-2.317-.772-2.652-.156-.143-.162-.207-.086-.204.417.35.966 1.05 1.166 1.843.09.361.11.741.013 1.116.048.018.096.039.145.06.732.337 1.003.63.872 1.029-.043-.002-.085-.001-.126 0h-.012c.107-.317-.128-.55-.754-.817-.648-.27-1.165-.243-1.252.303a1 1 0 00-.015.088 1.056 1.056 0 00-.146.06c-.304.158-.47.444-.563.794-.092.35-.119.772-.145 1.248-.016.239-.12.562-.225.904-1.06.72-2.534 1.028-3.786.222zm8.17.046c-.444.254-1.235.475-1.74 1.052-.438.493-.972.763-1.442.798-.47.035-.876-.149-1.116-.602v-.004c-.149-.266-.087-.687.038-1.13.124-.445.304-.9.329-1.27v-.002c.025-.474.053-.889.138-1.208.085-.32.217-.537.452-.658l.034-.016c.026.41.242.83.623.92.416.104 1.017-.234 1.27-.51.052 0 .1-.004.15-.005.221-.005.407.007.599.164v.001c.148.117.217.34.277.587.06.249.11.519.29.712h.002c.348.365.46.612.45.769-.01.159-.13.276-.354.402z"/>
  <path fill="#EBCB8B" d="M11.738 6.762c.015.048.093.04.138.063.04.02.071.065.116.066.042.001.107-.015.113-.057.008-.056-.073-.091-.126-.111-.067-.026-.153-.039-.216-.004-.014.008-.03.027-.025.043zm-.46 0c-.016.048-.094.04-.139.063-.039.02-.071.065-.115.066-.042.001-.108-.015-.114-.057-.007-.056.074-.091.126-.111.067-.026.153-.039.217-.004.015.008.03.027.025.043z"/>
</svg>
