<svg xmlns="http://www.w3.org/2000/svg" width="14" height="14" fill="none" viewBox="0 0 14 14">
  <path fill="#B48EAD" d="M7 12.833A5.843 5.843 0 011.167 7 5.843 5.843 0 017 1.167c3.214 0 5.833 2.356 5.833 5.25 0 1.93-1.569 3.5-3.5 3.5H8.301a.289.289 0 00-.292.291c0 .07.03.134.076.193A1.458 1.458 0 017 12.833zm0-10.5A4.673 4.673 0 002.333 7 4.673 4.673 0 007 11.667a.289.289 0 00.292-.292.315.315 0 00-.082-.204 1.448 1.448 0 01.06-1.994A1.458 1.458 0 018.3 8.75h1.033a2.333 2.333 0 002.334-2.333c0-2.252-2.095-4.084-4.667-4.084z"/>
  <path fill="#B48EAD" d="M3.792 7.583a.875.875 0 100-1.75.875.875 0 000 1.75zM5.542 5.25a.875.875 0 100-1.75.875.875 0 000 1.75zM8.458 5.25a.875.875 0 100-1.75.875.875 0 000 1.75zM10.208 7.583a.875.875 0 100-1.75.875.875 0 000 1.75z"/>
</svg>
